<?xml version="1.0"?>
<svg xmlns="http://www.w3.org/2000/svg" xmlns:xlink="http://www.w3.org/1999/xlink" version="1.1" id="Capa_1" x="0px" y="0px" viewBox="0 0 464 464" style="enable-background:new 0 0 464 464;" xml:space="preserve" width="512px" height="512px" class=""><g><script xmlns="" id="tinyhippos-injected"/><path style="fill:##15151fill:##15151fill:#00F2A9fill:#00F2A9fill:#00F2A9fill:#00F2A9fill:#00F2A9fill:#00F2A9fill:#00F2A9fill:#00F2A9fill:#00F2A9fill:#00F2A9fill:#00F2A9fill:#00F2A9fill:#00F2A9fill:#00F2A9fill:#00F2A9fill:#00F2A9fill:#00F2A9fill:#00F2A9fill:#00F2A9fill:#00F2A9fill:#00F2A9fill:#00F2A9fill:#00F2A9fill:#00F2A9fill:#00F2A9fill:#00F2A9fill:#00F2A9fill:#00F2A9fill:#00F2A9fill:#00F2A9fill:#00F2A9fill:#00F2A9fill:#00F2A9fill:#00F2A9fill:#00F2A9fill:#00F2A9fill:#00F2A9fill:#00F2A9fill:#00F2A9fill:#00F2A9fill:#00F2A9fill:#00F2A9fill:#00F2A9fill:#00F2A9fill:#00F2A9fill:#00F2A9fill:#00F2A9fill:#00F2A9fill:#00F2A9fill:#00F2A9fill:#00F2A9fill:#00F2A9fill:#00F2A9fill:#00F2A9fill:#00F2A9fill:#00F2A9fill:#00F2A9fill:#00F2A9fill:#00F2A9fill:#00F2A9fill:#00F2A9fill:#00F2A9fill:#00F2A9fill:#00F2A9fill:#00F2A9fill:#00F2A9fill:#00F2A9fill:#00F2A9fill:#00F2A9fill:#00F2A9fill:#00F2A9fill:#00F2A9fill:#00F2A9fill:#00F2A9fill:#00F2A9fill:#00F2A9fill:#00F2A9fill:#00F2A9fill:#00F2A9fill:#00F2A9fill:#00F2A9fill:#00F2A9fill:#00F2A9fill:#00F2A9fill:#00F2A9fill:#00F2A9fill:#00F2A9fill:#00F2A9fill:#00F2A9fill:#00F2A9fill:#00F2A9fill:#00F2A9fill:#00F2A9fill:#00F2A9fill:#00F2A9fill:#00F2A9fill:#00F2A9fill:#00F2A9fill:#00F2A9fill:#00F2A9fill:#00F2A9fill:#00F2A9fill:#00F2A9fill:#00F2A9fill:#00F2A9fill:#00F2A9fill:#00F2A9fill:#00F2A9fill:#00F2A9fill:#00F2A9fill:#00F2A9fill:#00F2A9" d="M136,296v-64c0-17.672-14.328-32-32-32H40c-17.672,0-32,14.328-32,32v64c0,17.672,14.328,32,32,32h64  C121.672,328,136,313.672,136,296z" data-original="#00F2A9" class="" data-old_color="##15151fill:##15151fill:#00F2A9fill:#00F2A9fill:#00F2A9fill:#00F2A9fill:#00F2A9fill:#00F2A9fill:#00F2A9fill:#00F2A9fill:#00F2A9fill:#00F2A9fill:#00F2A9fill:#00F2A9fill:#00F2A9fill:#00F2A9fill:#00F2A9fill:#00F2A9fill:#00F2A9fill:#00F2A9fill:#00F2A9fill:#00F2A9fill:#00F2A9fill:#00F2A9fill:#00F2A9fill:#00F2A9fill:#00F2A9fill:#00F2A9fill:#00F2A9fill:#00F2A9fill:#00F2A9fill:#00F2A9fill:#00F2A9fill:#00F2A9fill:#00F2A9fill:#00F2A9fill:#00F2A9fill:#00F2A9fill:#00F2A9fill:#00F2A9fill:#00F2A9fill:#00F2A9fill:#00F2A9fill:#00F2A9fill:#00F2A9fill:#00F2A9fill:#00F2A9fill:#00F2A9fill:#00F2A9fill:#00F2A9fill:#00F2A9fill:#00F2A9fill:#00F2A9fill:#00F2A9fill:#00F2A9fill:#00F2A9fill:#00F2A9fill:#00F2A9fill:#00F2A9fill:#00F2A9fill:#00F2A9fill:#00F2A9fill:#00F2A9fill:#00F2A9fill:#00F2A9fill:#00F2A9fill:#00F2A9fill:#00F2A9fill:#00F2A9fill:#00F2A9fill:#00F2A9fill:#00F2A9fill:#00F2A9fill:#00F2A9fill:#00F2A9fill:#00F2A9fill:#00F2A9fill:#00F2A9fill:#00F2A9fill:#00F2A9fill:#00F2A9fill:#00F2A9fill:#00F2A9fill:#00F2A9fill:#00F2A9fill:#00F2A9fill:#00F2A9fill:#00F2A9fill:#00F2A9fill:#00F2A9fill:#00F2A9fill:#00F2A9fill:#00F2A9fill:#00F2A9fill:#00F2A9fill:#00F2A9fill:#00F2A9fill:#00F2A9fill:#00F2A9fill:#00F2A9fill:#00F2A9fill:#00F2A9fill:#00F2A9fill:#00F2A9fill:#00F2A9fill:#00F2A9fill:#00F2A9fill:#00F2A9fill:#00F2A9fill:#00F2A9fill:#00F2A9fill:#00F2A9fill:#00F2A9"/><path style="fill:#FBFBFB" d="M424,0h-64c-22.056,0-40,17.944-40,40v24h-24c-22.056,0-40,17.944-40,40v96c0,13.232-10.768,24-24,24  h-24V8c0-4.424-3.584-8-8-8s-8,3.576-8,8v216h-48v-24c0-22.056-17.944-40-40-40H40c-22.056,0-40,17.944-40,40v64  c0,22.056,17.944,40,40,40h64c22.056,0,40-17.944,40-40v-24h48v216c0,4.424,3.584,8,8,8s8-3.576,8-8V240h24  c7.608,0,13.472,2.048,17.432,6.08c6.704,6.832,6.576,17.608,6.576,17.672c0,0.024,0.008,0.04,0.008,0.064  c0,0.064-0.016,0.12-0.016,0.184v96c0,22.056,17.944,40,40,40h24v24c0,22.056,17.944,40,40,40h64c22.056,0,40-17.944,40-40v-64  c0-22.056-17.944-40-40-40h-64c-22.056,0-40,17.944-40,40v24h-24c-13.232,0-24-10.768-24-24v-96c0-13.232,10.768-24,24-24h24v24  c0,22.056,17.944,40,40,40h64c22.056,0,40-17.944,40-40v-64c0-22.056-17.944-40-40-40h-64c-22.056,0-40,17.944-40,40v24h-24  c-22.568,0-23.952-20.008-24-24.04V104c0-13.232,10.768-24,24-24h24v24c0,22.056,17.944,40,40,40h64c22.056,0,40-17.944,40-40V40  C464,17.944,446.056,0,424,0z M128,264c0,13.232-10.768,24-24,24H40c-13.232,0-24-10.768-24-24v-64c0-13.232,10.768-24,24-24h64  c13.232,0,24,10.768,24,24V264z M336,360c0-13.232,10.768-24,24-24h64c13.232,0,24,10.768,24,24v64c0,13.232-10.768,24-24,24h-64  c-13.232,0-24-10.768-24-24V360z M336,200c0-13.232,10.768-24,24-24h64c13.232,0,24,10.768,24,24v64c0,13.232-10.768,24-24,24h-64  c-13.232,0-24-10.768-24-24V200z M448,104c0,13.232-10.768,24-24,24h-64c-13.232,0-24-10.768-24-24V40c0-13.232,10.768-24,24-24h64  c13.232,0,24,10.768,24,24V104z" data-original="#322153" class="active-path" data-old_color="#F9F9F9"/></g> </svg>
